<mxfile host="app.diagrams.net" agent="Mozilla/5.0 (Windows NT 10.0; Win64; x64) AppleWebKit/537.36 (KHTML, like Gecko) Chrome/135.0.0.0 Safari/537.36" version="26.2.14">
  <diagram name="Side-1" id="hylEhfDQwwEPBEYDcNoj">
    <mxGraphModel dx="1426" dy="785" grid="0" gridSize="10" guides="0" tooltips="1" connect="1" arrows="1" fold="1" page="0" pageScale="1" pageWidth="827" pageHeight="1169" math="0" shadow="0">
      <root>
        <mxCell id="0" />
        <mxCell id="1" parent="0" />
        <mxCell id="Ijvgve_hh81zZgXA6pIQ-2" value="" style="html=1;whiteSpace=wrap;" parent="1" vertex="1">
          <mxGeometry x="83" y="26" width="728" height="585" as="geometry" />
        </mxCell>
        <mxCell id="Ijvgve_hh81zZgXA6pIQ-3" value="Docker Swarm" style="text;html=1;align=center;verticalAlign=middle;resizable=0;points=[];autosize=1;strokeColor=none;fillColor=none;" parent="1" vertex="1">
          <mxGeometry x="84" y="32" width="97" height="26" as="geometry" />
        </mxCell>
        <mxCell id="Ijvgve_hh81zZgXA6pIQ-16" value="&amp;lt;&amp;lt;Digital Ocean Droplet&amp;gt;&amp;gt;&lt;div&gt;Manager&lt;/div&gt;" style="verticalAlign=top;align=left;spacingTop=8;spacingLeft=2;spacingRight=12;shape=cube;size=10;direction=south;fontStyle=4;html=1;whiteSpace=wrap;" parent="1" vertex="1">
          <mxGeometry x="103" y="98" width="303" height="239" as="geometry" />
        </mxCell>
        <mxCell id="Ijvgve_hh81zZgXA6pIQ-1" value="Manager" style="verticalAlign=top;align=left;spacingTop=8;spacingLeft=2;spacingRight=12;shape=cube;size=10;direction=south;fontStyle=4;html=1;whiteSpace=wrap;" parent="1" vertex="1">
          <mxGeometry x="117" y="152" width="248" height="172" as="geometry" />
        </mxCell>
        <mxCell id="Ijvgve_hh81zZgXA6pIQ-6" value="&lt;div&gt;&amp;lt;&amp;lt;Digital Ocean DB&amp;gt;&amp;gt;&lt;/div&gt;Managed Database" style="verticalAlign=top;align=left;spacingTop=8;spacingLeft=2;spacingRight=12;shape=cube;size=10;direction=south;fontStyle=4;html=1;whiteSpace=wrap;" parent="1" vertex="1">
          <mxGeometry x="850" y="90" width="201" height="175" as="geometry" />
        </mxCell>
        <mxCell id="Ijvgve_hh81zZgXA6pIQ-7" value="Postgresql" style="shape=cylinder3;whiteSpace=wrap;html=1;boundedLbl=1;backgroundOutline=1;size=15;" parent="1" vertex="1">
          <mxGeometry x="914" y="149" width="74" height="92" as="geometry" />
        </mxCell>
        <mxCell id="Ijvgve_hh81zZgXA6pIQ-12" value="API Container" style="verticalAlign=top;align=left;spacingTop=8;spacingLeft=2;spacingRight=12;shape=cube;size=10;direction=south;fontStyle=4;html=1;whiteSpace=wrap;" parent="1" vertex="1">
          <mxGeometry x="136" y="230" width="80" height="65" as="geometry" />
        </mxCell>
        <mxCell id="Ijvgve_hh81zZgXA6pIQ-13" value="Graphana Container&lt;span style=&quot;color: rgba(0, 0, 0, 0); font-family: monospace; font-size: 0px; text-wrap-mode: nowrap;&quot;&gt;%3CmxGraphModel%3E%3Croot%3E%3CmxCell%20id%3D%220%22%2F%3E%3CmxCell%20id%3D%221%22%20parent%3D%220%22%2F%3E%3CmxCell%20id%3D%222%22%20value%3D%22Worker%201%22%20style%3D%22verticalAlign%3Dtop%3Balign%3Dleft%3BspacingTop%3D8%3BspacingLeft%3D2%3BspacingRight%3D12%3Bshape%3Dcube%3Bsize%3D10%3Bdirection%3Dsouth%3BfontStyle%3D4%3Bhtml%3D1%3BwhiteSpace%3Dwrap%3B%22%20vertex%3D%221%22%20parent%3D%221%22%3E%3CmxGeometry%20x%3D%22379%22%20y%3D%22307%22%20width%3D%22244%22%20height%3D%22167%22%20as%3D%22geometry%22%2F%3E%3C%2FmxCell%3E%3C%2Froot%3E%3C%2FmxGraphModel%3E&lt;/span&gt;&lt;span style=&quot;color: rgba(0, 0, 0, 0); font-family: monospace; font-size: 0px; text-wrap-mode: nowrap;&quot;&gt;%3CmxGraphModel%3E%3Croot%3E%3CmxCell%20id%3D%220%22%2F%3E%3CmxCell%20id%3D%221%22%20parent%3D%220%22%2F%3E%3CmxCell%20id%3D%222%22%20value%3D%22Worker%201%22%20style%3D%22verticalAlign%3Dtop%3Balign%3Dleft%3BspacingTop%3D8%3BspacingLeft%3D2%3BspacingRight%3D12%3Bshape%3Dcube%3Bsize%3D10%3Bdirection%3Dsouth%3BfontStyle%3D4%3Bhtml%3D1%3BwhiteSpace%3Dwrap%3B%22%20vertex%3D%221%22%20parent%3D%221%22%3E%3CmxGeometry%20x%3D%22379%22%20y%3D%22307%22%20width%3D%22244%22%20height%3D%22167%22%20as%3D%22geometry%22%2F%3E%3C%2FmxCell%3E%3C%2Froot%3E%3C%2FmxGraphModel%3E&lt;/span&gt;" style="verticalAlign=top;align=left;spacingTop=8;spacingLeft=2;spacingRight=12;shape=cube;size=10;direction=south;fontStyle=4;html=1;whiteSpace=wrap;" parent="1" vertex="1">
          <mxGeometry x="241" y="226" width="84" height="69" as="geometry" />
        </mxCell>
        <mxCell id="Ijvgve_hh81zZgXA6pIQ-17" value="&amp;lt;&amp;lt;Digital Ocean Droplet&amp;gt;&amp;gt;&lt;div&gt;Worker-0&lt;/div&gt;" style="verticalAlign=top;align=left;spacingTop=8;spacingLeft=2;spacingRight=12;shape=cube;size=10;direction=south;fontStyle=4;html=1;whiteSpace=wrap;" parent="1" vertex="1">
          <mxGeometry x="486" y="93" width="303" height="240" as="geometry" />
        </mxCell>
        <mxCell id="Ijvgve_hh81zZgXA6pIQ-18" value="Worker" style="verticalAlign=top;align=left;spacingTop=8;spacingLeft=2;spacingRight=12;shape=cube;size=10;direction=south;fontStyle=4;html=1;whiteSpace=wrap;" parent="1" vertex="1">
          <mxGeometry x="502" y="145" width="248" height="172" as="geometry" />
        </mxCell>
        <mxCell id="Ijvgve_hh81zZgXA6pIQ-19" value="API Container" style="verticalAlign=top;align=left;spacingTop=8;spacingLeft=2;spacingRight=12;shape=cube;size=10;direction=south;fontStyle=4;html=1;whiteSpace=wrap;" parent="1" vertex="1">
          <mxGeometry x="521" y="187" width="80" height="65" as="geometry" />
        </mxCell>
        <mxCell id="Ijvgve_hh81zZgXA6pIQ-20" value="Web Container" style="verticalAlign=top;align=left;spacingTop=8;spacingLeft=2;spacingRight=12;shape=cube;size=10;direction=south;fontStyle=4;html=1;whiteSpace=wrap;" parent="1" vertex="1">
          <mxGeometry x="630" y="184" width="84" height="69" as="geometry" />
        </mxCell>
        <mxCell id="Ijvgve_hh81zZgXA6pIQ-21" value="&amp;lt;&amp;lt;Digital Ocean Droplet&amp;gt;&amp;gt;&lt;div&gt;Worker-1&lt;/div&gt;" style="verticalAlign=top;align=left;spacingTop=8;spacingLeft=2;spacingRight=12;shape=cube;size=10;direction=south;fontStyle=4;html=1;whiteSpace=wrap;" parent="1" vertex="1">
          <mxGeometry x="303" y="365" width="303" height="239" as="geometry" />
        </mxCell>
        <mxCell id="Ijvgve_hh81zZgXA6pIQ-22" value="Worker" style="verticalAlign=top;align=left;spacingTop=8;spacingLeft=2;spacingRight=12;shape=cube;size=10;direction=south;fontStyle=4;html=1;whiteSpace=wrap;" parent="1" vertex="1">
          <mxGeometry x="320" y="419" width="248" height="172" as="geometry" />
        </mxCell>
        <mxCell id="Ijvgve_hh81zZgXA6pIQ-23" value="API Container" style="verticalAlign=top;align=left;spacingTop=8;spacingLeft=2;spacingRight=12;shape=cube;size=10;direction=south;fontStyle=4;html=1;whiteSpace=wrap;" parent="1" vertex="1">
          <mxGeometry x="331" y="496" width="80" height="65" as="geometry" />
        </mxCell>
        <mxCell id="Ijvgve_hh81zZgXA6pIQ-24" value="Web Container" style="verticalAlign=top;align=left;spacingTop=8;spacingLeft=2;spacingRight=12;shape=cube;size=10;direction=south;fontStyle=4;html=1;whiteSpace=wrap;" parent="1" vertex="1">
          <mxGeometry x="439" y="495" width="84" height="69" as="geometry" />
        </mxCell>
        <mxCell id="Ijvgve_hh81zZgXA6pIQ-32" style="edgeStyle=orthogonalEdgeStyle;rounded=0;orthogonalLoop=1;jettySize=auto;html=1;" parent="1" source="Ijvgve_hh81zZgXA6pIQ-25" edge="1">
          <mxGeometry relative="1" as="geometry">
            <mxPoint x="813" y="359" as="targetPoint" />
          </mxGeometry>
        </mxCell>
        <mxCell id="Ijvgve_hh81zZgXA6pIQ-25" value="Actor" style="shape=umlActor;verticalLabelPosition=bottom;verticalAlign=top;html=1;outlineConnect=0;" parent="1" vertex="1">
          <mxGeometry x="969" y="329" width="30" height="60" as="geometry" />
        </mxCell>
        <mxCell id="2_5GDuukz1YEYGnifJgc-1" style="edgeStyle=orthogonalEdgeStyle;rounded=0;orthogonalLoop=1;jettySize=auto;html=1;exitX=1;exitY=0.25;exitDx=0;exitDy=0;entryX=0.474;entryY=0.99;entryDx=0;entryDy=0;entryPerimeter=0;" edge="1" parent="1" source="Ijvgve_hh81zZgXA6pIQ-2" target="Ijvgve_hh81zZgXA6pIQ-6">
          <mxGeometry relative="1" as="geometry" />
        </mxCell>
        <mxCell id="2_5GDuukz1YEYGnifJgc-2" value="" style="edgeStyle=none;orthogonalLoop=1;jettySize=auto;html=1;rounded=0;entryX=0;entryY=0;entryDx=239;entryDy=156.5;entryPerimeter=0;exitX=-0.008;exitY=0.749;exitDx=0;exitDy=0;exitPerimeter=0;endArrow=none;startFill=0;" edge="1" parent="1" source="Ijvgve_hh81zZgXA6pIQ-21" target="Ijvgve_hh81zZgXA6pIQ-16">
          <mxGeometry width="100" relative="1" as="geometry">
            <mxPoint x="-76" y="443" as="sourcePoint" />
            <mxPoint x="24" y="443" as="targetPoint" />
            <Array as="points" />
          </mxGeometry>
        </mxCell>
        <mxCell id="2_5GDuukz1YEYGnifJgc-3" value="" style="edgeStyle=none;orthogonalLoop=1;jettySize=auto;html=1;rounded=0;entryX=0;entryY=0;entryDx=240;entryDy=156.5;entryPerimeter=0;exitX=-0.013;exitY=0.38;exitDx=0;exitDy=0;exitPerimeter=0;endArrow=none;endFill=1;startFill=0;" edge="1" parent="1" source="Ijvgve_hh81zZgXA6pIQ-21" target="Ijvgve_hh81zZgXA6pIQ-17">
          <mxGeometry width="100" relative="1" as="geometry">
            <mxPoint x="389" y="373" as="sourcePoint" />
            <mxPoint x="278" y="322" as="targetPoint" />
            <Array as="points" />
          </mxGeometry>
        </mxCell>
        <mxCell id="2_5GDuukz1YEYGnifJgc-4" value="" style="edgeStyle=none;orthogonalLoop=1;jettySize=auto;html=1;rounded=0;exitX=0;exitY=0;exitDx=125;exitDy=303;exitPerimeter=0;endArrow=none;startFill=0;" edge="1" parent="1" source="Ijvgve_hh81zZgXA6pIQ-17">
          <mxGeometry width="100" relative="1" as="geometry">
            <mxPoint x="389" y="373" as="sourcePoint" />
            <mxPoint x="409" y="218" as="targetPoint" />
            <Array as="points" />
          </mxGeometry>
        </mxCell>
      </root>
    </mxGraphModel>
  </diagram>
</mxfile>
